# xmcd
#
# Track frame offsets:
#	150
#	23914
#	38513
#	54289
#	71345
#	90299
#	107455
#	126446
#	145725
#	169443
#	183999
#	199770
#	216826
#	235770
#	252917
#	271880
#
# Disc length: 3882 seconds
#
# Revision: 1
# Processed by: cddbd v1.5.2PL0 Copyright (c) Steve Scherf et al.
# Submitted via: audiograbber 1.83.01
#
DISCID=d60f2810
DTITLE=Sound Choice - American Idol Super Country Hits 3
DYEAR=2004
DGENRE=Country
TTITLE0=When the Sun Goes Down
TTITLE1=I Wanna Talk About Me
TTITLE2=I'm Gonna Miss Her
TTITLE3=Redneck Woman
TTITLE4=What Was I Thinkin'
TTITLE5=Living and Living Well
TTITLE6=This One's for the Girls
TTITLE7=I'm Gonna Getcha Good
TTITLE8=When the Sun Goes Down
TTITLE9=I Wanna Talk About Me
TTITLE10=I'm Gonna Miss Her
TTITLE11=Redneck Woman
TTITLE12=What Was I Thinkin' 
TTITLE13=Living and Living Well
TTITLE14=This One's for the Girls
TTITLE15=I'm Gonna Getcha Good
EXTD=
EXTT0=
EXTT1=
EXTT2=
EXTT3=
EXTT4=
EXTT5=
EXTT6=
EXTT7=
EXTT8=
EXTT9=
EXTT10=
EXTT11=
EXTT12=
EXTT13=
EXTT14=
EXTT15=
PLAYORDER=
